<svg xmlns="http://www.w3.org/2000/svg" width="64" height="64" viewBox="0 0 64 64" role="img" aria-labelledby="title">
  <title id="title">Huang</title>
  <!-- The H outline is derived from Homemade Apple (SIL Open Font License 1.1). -->
  <rect x="2" y="2" width="60" height="60" rx="14" fill="#f2ede3" stroke="#b8aa98" stroke-width="2"/>
  <path d="M963 371Q912 348 858.5 333.5Q805 319 751 306Q749 306 740.5 304.0Q732 302 723.0 299.5Q714 297 706.5 295.5Q699 294 699 294Q687 298 675.5 294.5Q664 291 652.5 286.0Q641 281 628.0 278.5Q615 276 599 283Q596 284 588.0 281.5Q580 279 572.0 275.0Q564 271 558.0 265.5Q552 260 551 256L557 250Q558 247 554.0 238.5Q550 230 545.0 220.5Q540 211 534.5 203.0Q529 195 526 193Q527 184 521.5 171.5Q516 159 509.5 145.0Q503 131 497.5 116.0Q492 101 492 88Q492 84 493.0 80.0Q494 76 493 73L492 71Q482 63 477.5 50.5Q473 38 470.5 24.5Q468 11 464.5 -2.0Q461 -15 453 -25V-26L452 -27Q439 -33 430.5 -29.0Q422 -25 415.5 -17.0Q409 -9 403.5 1.5Q398 12 391 20Q387 33 388.0 42.5Q389 52 397 62L399 63Q393 71 395.5 77.5Q398 84 401.5 90.0Q405 96 406.5 102.5Q408 109 400 118L402 120Q415 133 416.0 149.5Q417 166 414.5 183.0Q412 200 411.5 217.0Q411 234 421 248L422 249Q423 255 414.0 265.0Q405 275 400 280Q394 265 384.5 264.5Q375 264 363.5 267.0Q352 270 341.0 272.0Q330 274 321 265L316 261L314 265Q310 274 303.5 274.5Q297 275 289 274Q277 273 266.5 272.5Q256 272 245 272Q239 277 231.5 276.0Q224 275 216.5 274.0Q209 273 201.5 273.5Q194 274 187 282Q180 279 165.0 258.5Q150 238 133.5 213.0Q117 188 102.5 164.5Q88 141 83 132Q79 126 73.5 117.0Q68 108 62.0 98.5Q56 89 51.0 80.5Q46 72 43 66L44 63Q44 53 41.0 47.5Q38 42 33.5 38.5Q29 35 25.0 32.5Q21 30 18 27Q10 27 6.0 23.0Q2 19 -1.0 14.0Q-4 9 -8.5 5.0Q-13 1 -23 1Q-27 -4 -28.0 -6.0Q-29 -8 -31 -14Q-33 -21 -34.5 -24.0Q-36 -27 -37.5 -28.5Q-39 -30 -41.0 -31.5Q-43 -33 -45 -36Q-51 -37 -54.0 -34.0Q-57 -31 -60.0 -26.5Q-63 -22 -65.5 -17.5Q-68 -13 -72 -11L-71 -8Q-51 51 -23.0 104.5Q5 158 37 211Q39 215 40.0 219.0Q41 223 43 227Q48 240 53.5 252.0Q59 264 67 275Q74 286 79.5 296.0Q85 306 90 317L88 319Q56 345 32.5 372.5Q9 400 -12 435Q-17 444 -22.0 453.5Q-27 463 -32 471L-33 472Q-33 492 -30.0 512.0Q-27 532 -12 547L-11 548V549Q-6 559 0.0 564.0Q6 569 12.5 572.0Q19 575 26.0 577.5Q33 580 40 586V587Q63 597 85.0 604.0Q107 611 132 598L134 599Q143 604 156.0 604.5Q169 605 179 605Q185 602 191.5 597.5Q198 593 204.5 589.0Q211 585 218.0 583.0Q225 581 231 584H232V585Q242 595 248.0 613.5Q254 632 260.5 653.0Q267 674 275.0 694.5Q283 715 297 730Q297 733 301.0 743.5Q305 754 309.5 767.5Q314 781 316.5 794.5Q319 808 316 817L325 816Q329 820 330 823L329 826Q325 830 326.0 836.0Q327 842 329 847H328L327 851Q330 852 338.5 855.0Q347 858 356.0 862.0Q365 866 372.5 869.0Q380 872 381 872Q395 864 396.5 854.0Q398 844 395 830Q394 823 394.5 818.5Q395 814 395 808Q395 798 390.0 783.5Q385 769 378.5 753.0Q372 737 364.0 723.0Q356 709 350 700V694Q350 673 344.0 650.5Q338 628 329.0 606.0Q320 584 309.5 563.0Q299 542 289 523Q282 511 274.0 495.5Q266 480 258.5 464.0Q251 448 245.5 431.5Q240 415 238 402V401L213 354Q217 349 225.5 345.5Q234 342 243.5 339.0Q253 336 262.5 334.5Q272 333 279 333Q290 333 297.5 331.5Q305 330 313 321L315 319H317Q325 321 331.0 321.0Q337 321 345 321Q353 319 360.5 320.0Q368 321 376 322L375 315Q380 310 383 308Q388 316 395 324Q399 318 402 315Q405 317 409.5 323.0Q414 329 416 329L417 330L418 329Q436 323 451.0 325.0Q466 327 484 327Q487 334 492.5 338.0Q498 342 502.5 346.5Q507 351 508.0 356.0Q509 361 503 370L502 372Q502 372 505.5 378.0Q509 384 513.0 391.5Q517 399 520.5 405.0Q524 411 525 413Q545 446 560.0 480.5Q575 515 575 554V561Q577 562 579 562Q594 568 595.0 578.5Q596 589 594.0 601.0Q592 613 594.5 625.0Q597 637 615 646L617 647L618 649Q624 664 628.5 679.5Q633 695 639 710Q658 755 667 807Q669 819 676.5 828.5Q684 838 692.0 847.5Q700 857 706.5 867.5Q713 878 713 891Q713 899 711 902V905L713 906Q733 916 744.0 931.0Q755 946 755 969Q755 972 754.5 980.0Q754 988 752 990Q761 996 771 1006L773 1005Q792 991 796.5 976.5Q801 962 798.5 947.0Q796 932 791.0 916.0Q786 900 786 883L785 882Q770 856 761.0 823.0Q752 790 752 759Q741 759 738.5 754.0Q736 749 734.5 741.5Q733 734 730.5 726.0Q728 718 718 712L720 709Q720 707 720.5 706.0Q721 705 721 703Q721 697 718.0 692.5Q715 688 712.0 683.5Q709 679 708.5 674.0Q708 669 713 663Q717 657 718 656H707Q691 625 678.0 593.0Q665 561 654 528Q645 500 635.0 473.0Q625 446 611 420V417Q620 400 612.5 390.0Q605 380 596.5 372.5Q588 365 585.0 358.0Q582 351 599 340Q612 353 623.0 349.0Q634 345 650 341Q653 344 655.5 346.5Q658 349 664 347Q665 346 666.0 345.5Q667 345 668 344Q674 353 679.0 354.0Q684 355 689.0 353.0Q694 351 699.0 349.0Q704 347 709 350Q712 352 713.0 356.5Q714 361 716 365Q731 350 741.5 350.5Q752 351 761.5 356.5Q771 362 780.5 367.0Q790 372 803 366Q814 366 825.5 368.5Q837 371 848 373Q877 378 905.0 381.0Q933 384 962 379ZM194 563Q185 563 177.5 562.0Q170 561 164 555Q163 556 162 556Q123 567 87.0 552.0Q51 537 25 509L23 501Q22 498 22.0 494.5Q22 491 22 489Q22 470 31 454Q37 442 45.5 434.0Q54 426 64.5 419.0Q75 412 85.5 405.0Q96 398 105 388Q125 388 132.5 398.5Q140 409 143.5 423.5Q147 438 151.0 453.0Q155 468 168 477Q169 477 169.0 477.5Q169 478 170 478Q166 488 170.5 498.0Q175 508 181.5 518.0Q188 528 192.5 539.0Q197 550 194 563Z" transform="translate(9.6 55) scale(.05 -.05)" fill="#1d1b1b"/>
</svg>
